<svg viewBox="0 0 64 64" xmlns="http://www.w3.org/2000/svg">
  <!-- Top block - front face -->
  <polygon points="18,24 32,14 46,24 32,34" fill="white" stroke="white" stroke-width="0.5"/>

  <!-- Top block - right face -->
  <polygon points="46,24 50,27 50,41 46,38" fill="rgba(255,255,255,0.7)" stroke="white" stroke-width="0.5"/>

  <!-- Top block - left face -->
  <polygon points="18,24 14,27 14,41 18,38" fill="rgba(255,255,255,0.5)" stroke="white" stroke-width="0.5"/>

  <!-- Bottom left block - front face -->
  <polygon points="10,38 24,28 38,38 24,48" fill="white" stroke="white" stroke-width="0.5"/>

  <!-- Bottom left block - right face -->
  <polygon points="38,38 42,41 42,55 38,52" fill="rgba(255,255,255,0.7)" stroke="white" stroke-width="0.5"/>

  <!-- Bottom left block - left face -->
  <polygon points="10,38 6,41 6,55 10,52" fill="rgba(255,255,255,0.5)" stroke="white" stroke-width="0.5"/>

  <!-- Bottom right block - front face -->
  <polygon points="26,38 40,28 54,38 40,48" fill="white" stroke="white" stroke-width="0.5"/>

  <!-- Bottom right block - right face -->
  <polygon points="54,38 58,41 58,55 54,52" fill="rgba(255,255,255,0.7)" stroke="white" stroke-width="0.5"/>

  <!-- Bottom right block - left face -->
  <polygon points="26,38 22,41 22,55 26,52" fill="rgba(255,255,255,0.5)" stroke="white" stroke-width="0.5"/>
</svg>
