<svg xmlns="http://www.w3.org/2000/svg" viewBox="0 0 64 64">
  <!-- keyboard body -->
  <rect x="3" y="12" width="58" height="40" rx="7" fill="white"/>
  <!-- row 1 — 6 keys -->
  <rect x="8"  y="17" width="6" height="6" rx="1.5" fill="rgba(0,0,0,0.14)"/>
  <rect x="16" y="17" width="6" height="6" rx="1.5" fill="rgba(0,0,0,0.14)"/>
  <rect x="24" y="17" width="6" height="6" rx="1.5" fill="rgba(0,0,0,0.14)"/>
  <rect x="32" y="17" width="6" height="6" rx="1.5" fill="rgba(0,0,0,0.14)"/>
  <rect x="40" y="17" width="6" height="6" rx="1.5" fill="rgba(0,0,0,0.14)"/>
  <rect x="48" y="17" width="9" height="6" rx="1.5" fill="rgba(0,0,0,0.14)"/>
  <!-- row 2 -->
  <rect x="8"  y="25" width="8" height="6" rx="1.5" fill="rgba(0,0,0,0.14)"/>
  <rect x="18" y="25" width="6" height="6" rx="1.5" fill="rgba(0,0,0,0.14)"/>
  <rect x="26" y="25" width="6" height="6" rx="1.5" fill="rgba(0,0,0,0.14)"/>
  <rect x="34" y="25" width="6" height="6" rx="1.5" fill="rgba(0,0,0,0.14)"/>
  <rect x="42" y="25" width="6" height="6" rx="1.5" fill="rgba(0,0,0,0.14)"/>
  <rect x="50" y="25" width="7" height="6" rx="1.5" fill="rgba(0,0,0,0.14)"/>
  <!-- row 3 -->
  <rect x="8"  y="33" width="9" height="6" rx="1.5" fill="rgba(0,0,0,0.14)"/>
  <rect x="19" y="33" width="6" height="6" rx="1.5" fill="rgba(0,0,0,0.14)"/>
  <rect x="27" y="33" width="6" height="6" rx="1.5" fill="rgba(0,0,0,0.14)"/>
  <rect x="35" y="33" width="6" height="6" rx="1.5" fill="rgba(0,0,0,0.14)"/>
  <rect x="43" y="33" width="9" height="6" rx="1.5" fill="rgba(0,0,0,0.14)"/>
  <!-- spacebar -->
  <rect x="16" y="41" width="32" height="6" rx="3" fill="rgba(0,0,0,0.14)"/>
</svg>
