<svg xmlns="http://www.w3.org/2000/svg" viewBox="0 0 64 64">
  <!-- cranium -->
  <path d="M32 6 Q10 6 10 28 Q10 42 18 46 L18 54 Q18 57 21 57 L43 57 Q46 57 46 54 L46 46 Q54 42 54 28 Q54 6 32 6 Z" fill="white"/>
  <!-- left eye socket -->
  <ellipse cx="22" cy="28" rx="7" ry="8" fill="rgba(0,0,0,0.35)"/>
  <!-- right eye socket -->
  <ellipse cx="42" cy="28" rx="7" ry="8" fill="rgba(0,0,0,0.35)"/>
  <!-- nose cavity -->
  <path d="M29 38 L32 34 L35 38 L33 42 L31 42 Z" fill="rgba(0,0,0,0.3)"/>
  <!-- teeth dividers -->
  <line x1="26" y1="57" x2="26" y2="46" stroke="rgba(0,0,0,0.2)" stroke-width="2"/>
  <line x1="32" y1="57" x2="32" y2="46" stroke="rgba(0,0,0,0.2)" stroke-width="2"/>
  <line x1="38" y1="57" x2="38" y2="46" stroke="rgba(0,0,0,0.2)" stroke-width="2"/>
</svg>
