<svg xmlns="http://www.w3.org/2000/svg" viewBox="0 0 64 64" fill="none">
  <!-- Ball circle -->
  <circle cx="32" cy="32" r="26" fill="white" opacity="0.92"/>
  <!-- Panel lines -->
  <path d="M32 6 C32 6 20 18 20 32" stroke="rgba(160,130,80,0.7)" stroke-width="2.2" stroke-linecap="round" fill="none"/>
  <path d="M32 6 C32 6 44 18 44 32" stroke="rgba(160,130,80,0.7)" stroke-width="2.2" stroke-linecap="round" fill="none"/>
  <path d="M8 26 C14 22 22 20 32 20" stroke="rgba(160,130,80,0.7)" stroke-width="2.2" stroke-linecap="round" fill="none"/>
  <path d="M56 26 C50 22 42 20 32 20" stroke="rgba(160,130,80,0.7)" stroke-width="2.2" stroke-linecap="round" fill="none"/>
  <path d="M12 44 C18 40 26 38 32 44 C38 50 46 52 52 48" stroke="rgba(160,130,80,0.7)" stroke-width="2.2" stroke-linecap="round" fill="none"/>
  <!-- Outer circle -->
  <circle cx="32" cy="32" r="26" stroke="rgba(160,130,80,0.5)" stroke-width="2" fill="none"/>
  <!-- Net line at bottom -->
  <rect x="6" y="54" width="52" height="3" rx="1.5" fill="white" opacity="0.6"/>
  <!-- Net vertical lines -->
  <line x1="6" y1="54" x2="6" y2="62" stroke="white" stroke-width="1.5" opacity="0.5"/>
  <line x1="58" y1="54" x2="58" y2="62" stroke="white" stroke-width="1.5" opacity="0.5"/>
  <line x1="32" y1="54" x2="32" y2="62" stroke="white" stroke-width="1" opacity="0.3"/>
</svg>
